<?xml version="1.0" encoding="utf-8"?><!-- Uploaded to: SVG Repo, www.svgrepo.com, Generator: SVG Repo Mixer Tools -->
<svg width="800px" height="800px" viewBox="0 0 400 400" fill="none" xmlns="http://www.w3.org/2000/svg">
<path d="M228.589 159.543C287.298 136.005 276.514 211.967 239.974 204.478C227.875 201.998 214.138 184.565 219.006 176.661" stroke="#000000" stroke-opacity="0.9" stroke-width="16" stroke-linecap="round" stroke-linejoin="round"/>
<path d="M228 267C257 294.667 267 300.681 267 350" stroke="#000000" stroke-opacity="0.9" stroke-width="16" stroke-linecap="round" stroke-linejoin="round"/>
<path d="M136 257C159.257 258.121 164.5 294.5 189 287.5" stroke="#000000" stroke-opacity="0.9" stroke-width="16" stroke-linecap="round" stroke-linejoin="round"/>
<path d="M191 287C220.664 280.486 241.969 257.263 244 228" stroke="#000000" stroke-opacity="0.9" stroke-width="16" stroke-linecap="round" stroke-linejoin="round"/>
<path d="M248 225C278.185 216.668 290.926 187.981 285.952 164" stroke="#000000" stroke-opacity="0.9" stroke-width="16" stroke-linecap="round" stroke-linejoin="round"/>
<path d="M158 189C184 204.692 214 225 245 225" stroke="#000000" stroke-opacity="0.9" stroke-width="16" stroke-linecap="round" stroke-linejoin="round"/>
<path d="M276.247 157.031C278.469 160.85 283.366 162.145 287.185 159.923C291.004 157.702 292.299 152.805 290.077 148.986L276.247 157.031ZM256.64 86.3437L264.634 86.0309L256.64 86.3437ZM210.051 120.885L210.83 128.847C211.005 128.83 211.179 128.807 211.353 128.778L210.051 120.885ZM73.1629 168.394C72.2758 172.722 75.0654 176.95 79.3937 177.837C83.722 178.724 87.9499 175.935 88.8371 171.606L73.1629 168.394ZM290.077 148.986C278.292 128.726 265.492 107.956 264.634 86.0309L248.646 86.6566C249.694 113.435 265.197 138.035 276.247 157.031L290.077 148.986ZM264.634 86.0309C264.258 76.438 266.253 70.0519 268.958 65.896C271.631 61.7887 275.373 59.27 279.658 57.9945C288.771 55.2818 299.584 58.3987 304.901 63.7861C307.352 66.2692 308.204 68.745 307.958 71.1C307.699 73.59 306.038 77.598 300.061 82.5907C287.867 92.7775 260.807 104.404 208.749 112.992L211.353 128.778C263.99 120.095 294.677 107.937 310.319 94.8698C318.261 88.2354 323.04 80.7489 323.872 72.7577C324.719 64.6313 321.314 57.6389 316.289 52.5473C306.656 42.7856 289.644 38.328 275.093 42.6595C267.546 44.9061 260.496 49.5643 255.547 57.1691C250.63 64.7252 248.174 74.5864 248.646 86.6566L264.634 86.0309ZM209.272 112.923C196.366 114.185 183.368 112.382 170.171 110.075C157.397 107.842 143.806 104.983 131.451 105.037C118.647 105.093 106.096 108.235 95.5755 118.631C85.363 128.722 78.0112 144.74 73.1629 168.394L88.8371 171.606C93.4091 149.3 99.864 136.887 106.822 130.012C113.471 123.441 121.453 121.081 131.522 121.037C142.04 120.991 153.661 123.432 167.416 125.836C180.75 128.167 195.597 130.337 210.83 128.847L209.272 112.923Z" fill="#000000" fill-opacity="0.5"/>
</svg>